 http://leetleech.org/images/04918828305528742280.jpg

The Last Song (2010) DVDRip XviD-SKITTLES
 
http://leetleech.org/images/39185456263711143641.png

Video
ID                               : 0
Format                           : MPEG-4 Visual
Format profile                   : Advanced Simple@L5
Format settings, BVOP            : Yes
Format settings, QPel            : No
Format settings, GMC             : No warppoints
Format settings, Matrix          : Default (H.263)
Muxing mode                      : Packed bitstream
Codec ID                         : XVID
Codec ID/Hint                    : XviD
Duration                         : 1h 43mn
Bit rate                         : 811 Kbps
Width                            : 608 pixels
Height                           : 336 pixels
Display aspect ratio             : 16:9
Frame rate                       : 23.976 fps
Color space                      : YUV
Chroma subsampling               : 4:2:0
Bit depth                        : 8 bits
Scan type                        : Progressive
Bits/(Pixel*Frame)               : 0.166
Stream size                      : 602 MiB (86%)
Writing library                  : XviD 1.2.1 (UTC 2008-12-04)

Audio
ID                               : 1
Format                           : MPEG Audio
Format version                   : Version 1
Format profile                   : Layer 3
Mode                             : Joint stereo
Mode extension                   : MS Stereo
Codec ID                         : 55
Codec ID/Hint                    : MP3
Duration                         : 1h 43mn
Bit rate mode                    : Constant
Bit rate                         : 128 Kbps
Channel(s)                       : 2 channels
Sampling rate                    : 48.0 KHz
Video delay                      : 984ms
Stream size                      : 95.0 MiB (13%)
Alignment                        : Split accross interleaves
Interleave, duration             : 42 ms (1.00 video frame)
Interleave, preload duration     : 504 ms
 
http://www.imdb.com/title/tt1174730/
 
http://leetleech.org/images/46941880339015444838.png

Andy Garcia    ...     Vince Rizzo
Julianna Margulies...     Joyce Rizzo
Steven Strait    ...     Tony Nardella
Dominik GarcĒa-Lorido    ...     Vivian Rizzo
Ezra Miller    ...     Vince Jr.
Emily Mortimer    ...     Molly
Alan Arkin    ...     Michael Malakov
Jee Young Han    ...     Casting Assistant
Sharon Angela    ...     Tanya
 
http://leetleech.org/images/70187465700988366433.png

Genre:
Comedy | Drama 

Plot: 
The Rizzos, a family who doesn't share their habits, 
aspirations, and careers with one another, find their 
delicate web of lies disturbed by the arrival of a young 
ex-con (Strait) brought home by Vince (Garcia), the patriarch 
of the family, who is a corrections officer in real life, and 
a hopeful actor in private.  
 
http://leetleech.org/images/64476088802225496360.png
 
http://leetleech.org/images/51389704987122270663.png 
http://leetleech.org/images/05961530710866246698.png 
http://leetleech.org/images/34508896958928446129.png 
http://leetleech.org/images/73074419701318151783.png 
http://leetleech.org/images/67507625257364584340.png 
http://leetleech.org/images/51176348992078169469.png